<?xml version="1.0" standalone="no"?>
<!DOCTYPE svg PUBLIC "-//W3C//DTD SVG 20010904//EN"
 "http://www.w3.org/TR/2001/REC-SVG-20010904/DTD/svg10.dtd">
<svg version="1.0" xmlns="http://www.w3.org/2000/svg"
 width="1536.000000pt" height="1024.000000pt" viewBox="0 0 1536.000000 1024.000000"
 preserveAspectRatio="xMidYMid meet">

<g transform="translate(0.000000,1024.000000) scale(0.100000,-0.100000)"
fill="#000000" stroke="none">
<path d="M2705 8019 c-60 -3 -128 -12 -150 -18 -125 -39 -213 -136 -245 -269
-12 -53 -11 -82 10 -392 12 -168 32 -464 70 -1050 16 -250 36 -561 45 -690 8
-129 24 -361 35 -515 19 -264 73 -1073 105 -1560 8 -121 19 -278 25 -350 5
-71 17 -238 25 -370 29 -473 43 -645 57 -715 12 -64 40 -124 74 -161 l25 -26
-28 -53 c-24 -47 -28 -66 -28 -140 0 -72 4 -94 28 -145 34 -72 95 -138 159
-171 l47 -24 2542 0 c2264 0 2541 -2 2535 -15 -13 -35 -19 -145 -7 -145 7 0
11 21 11 56 0 68 39 190 81 250 36 53 102 100 160 115 39 10 52 8 114 -14 39
-14 111 -39 160 -57 166 -57 206 -73 202 -76 -2 -2 -74 20 -161 50 -167 57
-194 59 -251 22 -37 -24 -92 -103 -115 -166 -27 -70 -37 -200 -20 -271 34
-148 130 -239 267 -254 101 -12 421 31 668 90 77 18 156 36 175 39 59 11 125
29 133 36 4 4 31 1 60 -7 28 -7 59 -13 68 -13 10 0 19 -11 22 -29 12 -59 81
-61 518 -15 156 17 162 16 271 -30 21 -9 56 -16 78 -16 42 0 100 23 100 40 0
17 99 11 179 -10 116 -30 295 -67 406 -85 55 -9 125 -20 155 -25 412 -67 603
53 602 378 -1 53 -7 116 -16 146 -29 98 -114 197 -181 211 l-30 6 25 -16 c23
-15 24 -15 3 -10 -32 9 -29 -7 5 -26 42 -24 109 -159 122 -247 18 -113 -20
-259 -84 -327 -32 -33 -37 -35 -99 -35 -62 0 -163 12 -247 28 -25 5 -34 12
-32 24 1 9 -10 45 -25 80 -23 55 -27 76 -28 165 0 66 -3 94 -8 80 -17 -42 -1
-178 29 -250 30 -74 26 -95 -17 -79 -51 20 -97 172 -86 282 8 72 33 136 60
155 12 8 16 15 10 15 -20 0 -49 -38 -63 -83 -33 -110 -17 -267 36 -349 18 -28
20 -36 8 -31 -9 3 -30 7 -48 8 -17 1 -47 2 -67 3 -34 2 -39 6 -63 56 -48 98
-52 241 -9 330 16 35 20 38 53 32 32 -5 34 -4 16 9 -28 21 -42 19 -65 -11 -62
-79 -66 -248 -8 -365 22 -45 22 -48 5 -68 -16 -21 -18 -21 -42 -5 -14 9 -23
21 -19 26 3 6 13 2 22 -11 9 -12 20 -19 23 -15 4 3 0 13 -8 21 -8 8 -11 19 -8
25 4 7 2 8 -4 4 -19 -11 -52 68 -63 152 -9 67 -8 87 9 152 11 41 18 77 16 79
-11 12 -37 -85 -42 -155 -4 -76 10 -151 44 -230 9 -21 -36 -24 -56 -4 -49 49
-68 240 -35 339 19 57 36 76 65 68 11 -3 20 -1 20 4 0 11 -46 23 -59 14 -6 -3
-11 1 -11 9 0 11 -9 15 -32 14 -18 0 -42 0 -53 1 -38 3 9 20 71 26 97 10 73
13 -71 12 l-137 -2 4 -32 c2 -17 1 -30 -3 -27 -9 5 -28 -106 -21 -125 3 -8 1
-12 -5 -8 -6 4 -14 -4 -17 -17 -3 -13 -9 -32 -13 -43 -7 -17 -6 -17 11 0 22
21 22 21 22 -3 0 -14 -7 -20 -21 -20 -15 0 -28 -15 -48 -55 -27 -56 -34 -80
-19 -71 4 2 8 -4 8 -14 0 -10 -7 -18 -16 -17 -23 1 -18 45 12 102 39 77 79
212 85 293 6 74 10 81 31 60 19 -19 145 -13 440 21 293 34 346 42 482 71 156
33 217 25 288 -35 86 -72 134 -281 102 -445 -4 -25 -7 -46 -6 -47 10 -10 181
92 327 197 72 51 192 183 256 282 80 122 113 265 93 403 -15 102 -65 214 -131
289 -84 95 -225 176 -334 190 -155 21 -410 -42 -707 -175 -128 -57 -172 -85
-360 -225 -113 -84 -151 -118 -180 -162 -112 -174 -135 -206 -167 -228 -20
-13 -43 -24 -52 -24 -17 0 -49 30 -49 47 0 5 34 76 76 157 69 134 82 174 41
128 -22 -24 -127 -229 -127 -247 0 -31 -41 -95 -70 -110 -34 -17 -73 -19 -101
-5 -27 15 -25 85 4 158 13 32 61 116 105 188 45 72 82 134 82 139 0 32 -126
-144 -174 -244 -18 -39 -42 -104 -51 -143 -10 -40 -24 -79 -33 -86 -25 -19
-61 -14 -89 14 -23 23 -25 30 -18 82 14 115 56 215 159 375 35 54 38 77 5 39
-82 -96 -149 -236 -175 -366 -17 -81 -25 -96 -55 -96 -68 -1 -83 120 -37 294
10 40 66 125 122 184 24 26 27 32 11 27 -15 -5 -14 -2 6 11 14 11 42 37 62 60
46 51 102 82 247 133 241 85 391 162 692 357 75 49 179 115 231 146 l94 57 7
63 c16 166 19 241 7 234 -8 -5 -11 6 -10 36 1 36 2 39 9 18 l8 -25 3 25 c1 14
1 33 1 43 -3 30 21 14 40 -25 10 -20 22 -39 27 -42 11 -7 212 64 366 129 61
25 145 60 187 77 83 33 83 33 48 97 -6 12 -5 22 2 29 12 12 -23 1 -177 -58
-203 -78 -479 -172 -542 -184 l-62 -13 -36 97 c-20 56 -33 105 -29 115 4 9 2
20 -3 24 -6 3 -27 78 -48 166 -76 326 -100 418 -111 422 -17 6 -21 -32 -12
-142 10 -135 0 -319 -24 -440 -33 -170 -103 -281 -295 -467 -189 -182 -304
-230 -556 -229 -77 0 -112 6 -212 36 -124 38 -190 68 -338 153 -48 28 -87 47
-87 43 0 -17 122 -122 196 -170 43 -27 103 -69 132 -91 89 -70 213 -120 454
-184 l123 -33 -74 -37 c-188 -95 -501 -98 -749 -7 -90 34 -134 41 -139 24 -5
-13 86 -88 120 -99 12 -4 36 -17 52 -29 45 -34 91 -55 154 -71 84 -22 89 -37
11 -32 -36 3 -73 8 -83 13 -15 6 -16 4 -8 -19 14 -35 3 -39 -81 -31 -51 5 -69
4 -64 -4 4 -6 12 -9 17 -6 5 4 9 2 9 -4 0 -5 -4 -13 -10 -16 -5 -3 -10 -1 -10
6 0 8 -5 7 -17 -2 -9 -8 -14 -9 -10 -3 3 6 0 11 -8 11 -8 0 -13 -3 -10 -5 3
-3 0 -11 -5 -17 -8 -9 10 -16 72 -28 124 -24 321 -46 416 -47 29 0 52 -5 52
-10 0 -7 -27 -9 -77 -5 -334 26 -567 72 -745 149 -25 11 -38 12 -40 4 -3 -7
-74 12 -203 55 -195 64 -357 110 -600 168 -286 70 -495 40 -638 -91 -70 -64
-106 -118 -134 -199 l-22 -66 -1528 0 -1528 0 -7 125 c-5 69 -21 348 -38 620
-34 563 -33 552 -60 1030 -11 195 -27 468 -35 605 -8 138 -28 484 -45 770 -16
286 -34 585 -40 665 -23 354 -45 723 -75 1280 -8 151 -17 303 -19 338 l-5 62
3062 0 c2208 0 3073 -3 3102 -11 57 -16 101 -67 114 -131 9 -42 41 -455 41
-517 0 -9 -12 -4 -35 13 -56 43 -101 58 -170 55 -57 -2 -67 1 -106 30 -212
155 -520 158 -689 5 l-40 -36 -64 13 c-242 48 -422 -212 -284 -409 l29 -42
-30 -25 c-38 -33 -54 -83 -49 -152 4 -46 10 -59 44 -94 21 -22 55 -45 75 -51
l37 -10 4 -97 c2 -53 7 -102 11 -109 18 -28 27 5 27 101 1 94 29 289 44 304 4
4 13 8 21 9 38 6 86 27 107 49 l25 24 34 -35 c60 -63 101 -78 209 -78 94 -1
113 5 172 46 14 10 20 8 38 -15 51 -64 195 -106 258 -74 30 14 33 14 69 -14
21 -16 44 -29 51 -29 8 0 12 -19 12 -59 0 -71 29 -223 67 -345 l27 -89 51 56
c62 69 108 97 159 97 82 0 136 -64 144 -173 8 -104 -33 -192 -118 -255 l-45
-33 6 -132 c4 -73 7 -196 8 -274 l1 -141 90 -22 c50 -11 118 -29 152 -40 34
-11 64 -18 66 -16 1 2 -2 68 -7 147 -6 79 -15 218 -21 309 -5 91 -19 307 -30
480 -29 449 -29 454 4 517 48 92 44 175 -12 245 -27 35 -28 39 -45 285 -10
137 -22 316 -27 399 -13 208 -35 348 -66 412 -36 73 -114 148 -193 186 -62 28
-75 31 -196 33 -280 6 -7947 8 -8050 2z m512 -648 c107 -55 161 -187 114 -280
-12 -23 -25 -41 -29 -39 -4 2 -34 16 -66 33 -84 41 -145 41 -215 -2 -29 -18
-58 -33 -66 -33 -19 0 -56 64 -62 108 -14 101 55 197 167 233 37 12 113 3 157
-20z m333 -156 l0 -95 45 0 c38 0 45 -3 45 -20 0 -18 -7 -20 -64 -20 l-64 0
-7 104 c-4 57 -4 109 -1 115 4 6 16 11 27 11 17 0 19 -8 19 -95z m150 -34 c0
-62 7 -75 34 -65 12 5 16 20 16 65 0 52 2 59 20 59 18 0 20 -7 20 -70 0 -38 1
-73 3 -77 4 -13 -104 -14 -119 -2 -9 8 -14 34 -14 80 0 62 2 69 20 69 18 0 20
-7 20 -59z m248 36 c3 -16 -1 -18 -27 -12 -40 8 -61 -8 -61 -46 0 -34 24 -49
64 -42 23 5 27 3 24 -13 -2 -14 -13 -20 -44 -22 -35 -3 -45 1 -63 24 -27 35
-27 81 1 111 28 30 101 30 106 0z m150 11 c7 -7 12 -40 12 -79 l0 -66 -52 -2
c-60 -1 -78 11 -78 50 0 26 5 30 45 41 25 7 45 16 45 20 0 16 -31 21 -55 10
-29 -13 -43 1 -25 23 15 18 91 20 108 3z m155 6 c3 -3 3 -12 1 -19 -4 -9 -16
-12 -40 -8 -48 8 -44 -13 6 -33 33 -13 40 -21 40 -43 0 -15 -5 -32 -12 -39
-14 -14 -77 -16 -97 -3 -24 16 -2 32 35 25 45 -8 47 18 2 31 -42 13 -55 36
-40 69 10 22 18 26 55 26 24 0 46 -3 50 -6z m268 -934 c35 -19 49 -64 47 -147
l-1 -78 -7 85 c-7 99 -14 118 -47 131 -14 5 -345 9 -787 9 -804 0 -779 1 -804
-45 -6 -11 -12 -14 -12 -7 0 7 11 24 25 37 l24 25 771 0 c510 0 778 -3 791
-10z m-1614 -132 c-2 -13 -4 -3 -4 22 0 25 2 35 4 23 2 -13 2 -33 0 -45z m72
-115 l34 -23 751 0 c668 0 754 2 776 16 l25 16 -24 -21 c-23 -21 -28 -21 -773
-21 -638 0 -753 2 -777 15 -35 18 -81 71 -81 93 0 9 8 1 18 -18 9 -19 32 -45
51 -57z m151 -356 c0 -6 -6 -3 -13 7 -12 16 -16 14 -52 -17 -36 -31 -40 -40
-40 -80 0 -85 57 -135 166 -147 65 -6 68 -7 24 -9 -105 -2 -172 37 -196 117
-10 34 -9 48 2 79 18 46 75 89 95 72 8 -6 14 -16 14 -22z m168 -44 l3 -53 -70
0 -71 0 0 48 c0 27 3 52 7 56 4 4 34 6 68 4 l60 -3 3 -52z m-149 -67 c10 -12
32 -16 92 -16 l79 0 0 -29 c0 -18 -10 -41 -26 -58 l-26 -28 21 29 c12 16 21
39 21 52 0 23 -3 24 -79 24 -73 0 -80 2 -95 25 -9 13 -15 41 -15 62 l2 38 6
-42 c4 -23 13 -48 20 -57z m1035 48 c9 -24 8 -31 -10 -48 -13 -14 -55 -16
-304 -16 -159 0 -295 3 -304 6 -10 4 -16 18 -16 40 l0 34 314 0 c277 0 315 -2
320 -16z m-1024 -523 c0 -5 -11 -6 -24 -4 -18 4 -33 -3 -52 -22 -23 -23 -26
-32 -22 -77 3 -29 2 -44 -3 -36 -18 27 -10 86 16 117 30 35 85 50 85 22z m107
-2 c31 -19 63 -64 63 -89 0 -6 -24 -10 -59 -10 l-58 0 -7 50 c-10 76 2 85 61
49z m-100 -86 c-3 -10 -5 -2 -5 17 0 19 2 27 5 18 2 -10 2 -26 0 -35z m1033
23 c8 -2 -128 -4 -302 -5 -299 -1 -318 -2 -318 -19 0 -10 5 -23 12 -30 9 -9 9
-12 0 -12 -15 0 -28 48 -16 60 5 5 54 11 109 12 119 4 494 -1 515 -6z m98 4
c6 0 12 -4 12 -9 0 -6 -12 -6 -31 -1 -16 5 -38 6 -47 4 -15 -5 -15 -4 -2 5 8
6 24 9 35 6 11 -2 26 -5 33 -5z m-337 -73 l324 -2 -326 -3 c-301 -2 -328 -1
-340 16 -12 15 -12 16 2 5 12 -9 101 -13 340 -16z m349 13 c0 -5 -5 -10 -11
-10 -5 0 -7 5 -4 10 3 6 8 10 11 10 2 0 4 -4 4 -10z m-990 -74 c0 -2 -8 -10
-17 -17 -16 -13 -17 -12 -4 4 13 16 21 21 21 13z m-130 -416 c14 -14 30 -18
57 -16 63 5 69 8 38 16 -24 5 -27 8 -13 14 12 5 32 -2 62 -21 35 -21 45 -34
46 -55 0 -14 3 -35 6 -45 5 -15 4 -15 -5 -3 -6 8 -11 27 -11 42 0 17 -8 31
-19 38 -29 15 -31 13 -31 -25 l0 -35 -70 2 c-84 1 -84 18 1 18 55 0 59 2 59
23 0 22 -3 23 -60 19 -49 -4 -60 -2 -60 11 0 22 -43 30 -57 10 -13 -17 -17
-111 -7 -150 6 -21 12 -23 83 -24 l76 -1 -55 -9 c-101 -15 -120 1 -120 103 0
95 35 133 80 88z m-43 -62 c-3 -8 -6 -5 -6 6 -1 11 2 17 5 13 3 -3 4 -12 1
-19z m38 12 c3 -5 1 -10 -4 -10 -6 0 -11 5 -11 10 0 6 2 10 4 10 3 0 8 -4 11
-10z m1183 -2 c17 -17 15 -55 -4 -62 -9 -3 -177 -6 -375 -6 l-359 0 -12 25
c-8 19 -8 28 2 40 11 13 62 15 374 15 268 0 365 -3 374 -12z m-1221 -80 c-3
-8 -6 -5 -6 6 -1 11 2 17 5 13 3 -3 4 -12 1 -19z m234 -32 c-9 -22 -16 -26
-48 -24 l-38 1 37 4 c29 3 37 9 43 30 3 14 8 23 11 21 2 -3 0 -17 -5 -32z
m-88 7 c-24 -2 -62 -2 -85 0 -24 2 -5 4 42 4 47 0 66 -2 43 -4z m115 -460 c5
-10 6 -27 2 -38 -6 -17 -19 -21 -91 -25 -46 -3 -110 -3 -141 -2 -53 3 -58 6
-58 27 0 54 2 55 146 55 117 0 134 -2 142 -17z m1078 -48 c14 -58 31 -55 -418
-53 l-413 3 -3 23 c-8 54 -25 52 417 52 l411 0 6 -25z m-1098 -71 c31 -9 29
-42 -4 -54 -28 -11 -153 -14 -178 -4 -10 4 -16 18 -16 35 l0 29 88 0 c48 0 97
-3 110 -6z m1039 -770 c-3 -3 -12 -4 -19 -1 -8 3 -5 6 6 6 11 1 17 -2 13 -5z
m91 -1 c-16 -2 -40 -2 -55 0 -16 2 -3 4 27 4 30 0 43 -2 28 -4z m86 -12 c4 -5
-3 -7 -14 -4 -23 6 -26 13 -6 13 8 0 17 -4 20 -9z m-396 -17 c27 -19 28 -38 2
-64 -19 -19 -36 -19 -504 -20 -474 0 -486 0 -506 20 -25 25 -25 35 0 60 19 19
33 20 503 20 421 0 485 -2 505 -16z m416 -59 c-4 -8 -11 -15 -16 -15 -6 0 -5
6 2 15 7 8 14 15 16 15 2 0 1 -7 -2 -15z m5859 -676 c-6 -6 -18 -6 -28 -3 -18
7 -18 8 1 14 23 9 39 1 27 -11z m-167 -168 c-31 -31 -38 -46 -38 -77 0 -29 -2
-34 -10 -21 -5 10 -6 27 -3 40 7 20 73 97 84 97 3 0 -12 -18 -33 -39z m-2294
-150 c14 -5 98 -106 98 -118 0 -2 -129 -2 -287 -1 -159 1 -258 3 -221 5 47 3
68 8 72 19 3 9 1 12 -4 9 -6 -3 -10 -1 -10 4 0 6 -9 11 -20 11 -14 0 -18 -5
-14 -17 4 -13 2 -13 -8 2 -8 13 -21 19 -32 17 -13 -3 -16 0 -11 9 6 9 3 11 -8
6 -13 -5 -17 -1 -17 16 0 18 2 19 10 7 6 -9 10 -10 10 -3 0 7 19 14 43 16 23
2 2 4 -48 4 -49 0 -82 -1 -72 -4 10 -3 17 -14 17 -29 0 -22 -4 -25 -27 -22
-23 2 -28 8 -27 31 0 15 -5 28 -10 29 -6 1 23 5 64 8 90 9 478 9 502 1z m-594
-8 c-10 -2 -28 -2 -40 0 -13 2 -5 4 17 4 22 1 32 -1 23 -4z m-25 -43 c3 -14 1
-20 -6 -17 -7 2 -14 14 -15 26 -4 28 13 20 21 -9z m105 -67 c-10 -2 -28 -2
-40 0 -13 2 -5 4 17 4 22 1 32 -1 23 -4z m931 -227 c-7 -7 -89 -34 -89 -29 0
6 63 32 79 33 8 0 12 -2 10 -4z m3367 -68 c4 -7 -9 1 -29 16 -20 16 -37 30
-37 33 0 7 58 -36 66 -49z m-3312 2 c97 -147 111 -297 40 -450 -50 -109 -109
-138 -172 -85 -94 79 -112 363 -29 478 76 106 119 121 161 57z m357 -42 c19
-6 36 -15 39 -18 3 -4 13 -9 24 -11 22 -5 54 -80 67 -162 11 -69 -1 -154 -32
-226 -19 -45 -25 -51 -51 -51 -32 0 -32 4 -1 80 32 79 26 233 -14 318 -9 18
-13 36 -9 39 4 4 -13 15 -36 24 -49 20 -39 25 13 7z m1939 -22 c0 -2 -8 -10
-17 -17 -16 -13 -17 -12 -4 4 13 16 21 21 21 13z m-2529 -33 c-12 -20 -14 -14
-5 12 4 9 9 14 11 11 3 -2 0 -13 -6 -23z m747 1 c53 -12 109 -36 109 -47 1 -7
6 -36 12 -66 19 -91 14 -170 -14 -228 -21 -47 -28 -53 -54 -53 l-30 0 20 47
c30 70 35 154 14 238 -21 84 -27 93 -71 101 -19 3 -37 11 -41 17 -4 7 0 8 11
4 10 -4 30 -10 44 -13z m-205 -49 c13 -38 16 -74 14 -155 -3 -91 -7 -112 -30
-157 -24 -46 -31 -53 -57 -53 -17 0 -30 1 -30 3 0 2 11 32 25 66 34 83 41 167
21 260 -17 81 -15 94 17 89 16 -2 27 -16 40 -53z m2133 -9 c-11 -30 -23 -53
-24 -51 -9 9 31 105 43 105 1 0 -7 -24 -19 -54z m-2209 -28 c-3 -8 -6 -5 -6 6
-1 11 2 17 5 13 3 -3 4 -12 1 -19z m160 0 c-3 -8 -6 -5 -6 6 -1 11 2 17 5 13
3 -3 4 -12 1 -19z m489 -49 l31 -12 -5 -71 c-4 -64 -1 -75 22 -108 14 -21 21
-38 17 -38 -5 0 -20 17 -32 38 -13 20 -26 38 -30 40 -6 3 8 113 16 121 7 6
-35 26 -107 50 -36 12 -74 28 -84 36 -16 13 75 -17 172 -56z m2511 49 c-3 -8
-6 -5 -6 6 -1 11 2 17 5 13 3 -3 4 -12 1 -19z m-3050 -10 c-3 -8 -6 -5 -6 6
-1 11 2 17 5 13 3 -3 4 -12 1 -19z m160 -10 c-3 -8 -6 -5 -6 6 -1 11 2 17 5
13 3 -3 4 -12 1 -19z m-770 -70 c-2 -18 -4 -6 -4 27 0 33 2 48 4 33 2 -15 2
-42 0 -60z m832 3 c1 -48 -5 -35 -12 24 -4 32 -3 43 3 30 5 -11 9 -35 9 -54z
m-162 22 c-3 -10 -5 -4 -5 12 0 17 2 24 5 18 2 -7 2 -21 0 -30z m-160 -5 c-3
-7 -5 -2 -5 12 0 14 2 19 5 13 2 -7 2 -19 0 -25z m420 10 c-3 -8 -6 -5 -6 6
-1 11 2 17 5 13 3 -3 4 -12 1 -19z m1772 -202 c6 -16 9 -31 7 -33 -13 -13 -36
109 -34 181 l1 81 7 -100 c4 -55 12 -113 19 -129z m-1922 162 c-2 -13 -4 -5
-4 17 -1 22 1 32 4 23 2 -10 2 -28 0 -40z m-160 -5 c-3 -10 -5 -2 -5 17 0 19
2 27 5 18 2 -10 2 -26 0 -35z m320 -35 c-2 -13 -4 -3 -4 22 0 25 2 35 4 23 2
-13 2 -33 0 -45z m213 55 c0 -5 -5 -15 -10 -23 -8 -12 -10 -11 -10 8 0 12 5
22 10 22 6 0 10 -3 10 -7z m-643 -65 c-3 -7 -5 -2 -5 12 0 14 2 19 5 13 2 -7
2 -19 0 -25z m153 -68 c-6 -23 -13 -40 -15 -38 -3 2 0 20 5 39 6 18 11 50 12
69 l1 35 4 -32 c2 -17 -1 -50 -7 -73z m117 58 c-3 -7 -5 -2 -5 12 0 14 2 19 5
13 2 -7 2 -19 0 -25z m-774 -28 c4 -30 3 -38 -3 -25 -8 19 -14 83 -6 74 2 -2
6 -24 9 -49z m822 -7 c-3 -21 -10 -42 -15 -46 -4 -5 -3 12 3 37 12 55 22 62
12 9z m90 -50 c-9 -15 -13 -19 -9 -8 4 11 9 34 13 50 4 25 6 26 9 8 2 -12 -4
-34 -13 -50z m-420 27 c-4 -12 -9 -19 -12 -17 -3 3 -2 15 2 27 4 12 9 19 12
17 3 -3 2 -15 -2 -27z m272 -2 c-3 -7 -5 -2 -5 12 0 14 2 19 5 13 2 -7 2 -19
0 -25z m-744 -38 c3 -11 1 -18 -4 -14 -5 3 -9 12 -9 20 0 20 7 17 13 -6z
m2338 -8 c-8 -15 -8 -22 2 -25 6 -3 2 -6 -10 -6 -16 -1 -21 -6 -17 -16 4 -8 1
-15 -4 -15 -22 0 -20 18 4 54 26 38 44 44 25 8z m-1730 -29 c-12 -20 -14 -14
-5 12 4 9 9 14 11 11 3 -2 0 -13 -6 -23z m253 -17 c-7 -18 -43 -30 -71 -23
-10 3 -4 5 14 6 21 1 37 8 45 21 14 22 21 20 12 -4z m-17 -42 c-3 -3 -12 -4
-19 -1 -8 3 -5 6 6 6 11 1 17 -2 13 -5z m-72 -14 c-3 -5 -14 -10 -23 -9 -14 0
-13 2 3 9 27 11 27 11 20 0z m-661 -21 c20 -12 36 -23 36 -25 0 -5 -44 18 -70
35 -27 19 -2 11 34 -10z m2800 10 c4 6 15 11 24 10 14 0 14 -2 2 -6 -8 -3 -22
-12 -30 -19 -14 -11 -16 -10 -17 9 -2 15 0 18 6 8 6 -9 11 -10 15 -2z m-107
-35 c-3 -3 -12 -4 -19 -1 -8 3 -5 6 6 6 11 1 17 -2 13 -5z m-2440 -20 c-3 -3
-12 -4 -19 -1 -8 3 -5 6 6 6 11 1 17 -2 13 -5z m2578 -12 c-3 -3 -11 0 -18 7
-9 10 -8 11 6 5 10 -3 15 -9 12 -12z m120 -2 c27 -11 -49 -11 -85 0 -21 7 -17
8 20 8 25 0 54 -3 65 -8z m85 -1 c0 -6 8 -9 18 -7 10 3 27 -1 38 -9 17 -14 16
-14 -16 -7 -19 4 -40 7 -47 7 -7 0 -10 4 -7 9 3 4 0 8 -5 8 -6 0 -11 -4 -11
-10 0 -5 -7 -10 -15 -10 -29 0 -15 26 15 28 17 1 30 -3 30 -9z"/>
<path d="M3062 7297 c-24 -25 -29 -75 -12 -107 5 -10 26 -24 45 -30 30 -10 40
-9 61 5 50 32 56 93 14 135 -28 28 -81 26 -108 -3z"/>
<path d="M4027 7143 c-16 -15 -6 -34 15 -31 29 4 38 38 10 38 -10 0 -22 -3
-25 -7z"/>
<path d="M3562 5613 l3 -28 296 -3 c254 -2 298 0 309 13 7 8 10 22 6 30 -5 13
-47 15 -311 15 l-306 0 3 -27z"/>
<path d="M3628 4438 c-3 -7 -3 -21 0 -31 4 -16 28 -17 371 -15 l366 3 0 25 0
25 -367 3 c-288 2 -367 0 -370 -10z"/>
<path d="M3137 3883 c-4 -3 -7 -17 -7 -30 l0 -24 133 3 132 3 3 28 3 27 -129
0 c-71 0 -132 -3 -135 -7z"/>
<path d="M3662 3823 l3 -28 408 -3 408 -2 -3 27 -3 28 -408 3 -408 2 3 -27z"/>
<path d="M3200 3742 c0 -26 18 -32 99 -32 66 0 116 19 98 36 -4 5 -50 10 -102
12 -90 4 -95 3 -95 -16z"/>
<path d="M7691 1896 c3 -3 23 -6 47 -7 38 -3 40 -4 27 -19 -8 -9 -12 -20 -8
-23 3 -4 1 -7 -5 -7 -7 0 -12 6 -12 14 0 8 -7 13 -15 12 -26 -4 -30 -17 -11
-32 17 -12 17 -14 4 -14 -9 0 -20 -4 -23 -10 -4 -6 66 -10 195 -10 110 0 200
2 200 5 0 2 -12 25 -27 50 l-28 45 -174 0 c-96 0 -172 -2 -170 -4z"/>
<path d="M7681 1854 c0 -11 3 -14 6 -6 3 7 2 16 -1 19 -3 4 -6 -2 -5 -13z"/>
<path d="M6360 7343 c-23 -9 -30 -25 -19 -45 13 -24 46 -23 59 1 7 15 6 23 -6
35 -8 9 -16 16 -17 15 -1 0 -9 -3 -17 -6z"/>
<path d="M6862 7291 l3 -59 -50 5 c-45 5 -53 2 -78 -22 -15 -16 -30 -39 -33
-52 -25 -98 71 -189 144 -137 12 8 22 10 22 5 0 -6 11 -11 25 -11 l25 0 0 165
0 165 -31 0 -31 0 4 -59z m-12 -111 c24 -24 27 -82 4 -104 -22 -23 -71 -20
-84 3 -18 35 -12 88 12 105 30 21 44 20 68 -4z"/>
<path d="M7510 7291 l0 -58 -48 5 c-42 4 -51 1 -80 -26 -28 -26 -32 -37 -32
-80 0 -40 6 -57 26 -81 32 -38 84 -50 119 -27 14 9 25 12 25 6 0 -5 11 -10 25
-10 l25 0 0 165 0 165 -30 0 c-30 0 -30 0 -30 -59z m1 -129 c12 -31 5 -82 -13
-93 -35 -23 -84 -2 -93 40 -16 74 80 122 106 53z"/>
<path d="M8470 7185 l0 -165 30 0 30 0 0 165 0 165 -30 0 -30 0 0 -165z"/>
<path d="M5030 7176 l0 -156 84 0 c107 0 136 18 136 85 0 34 -5 47 -22 59 -20
15 -21 16 -5 34 24 26 22 84 -4 108 -16 15 -40 20 -105 23 l-84 3 0 -156z
m149 88 c12 -11 12 -18 3 -39 -10 -21 -18 -25 -57 -25 l-45 0 0 44 0 44 43 -5
c23 -3 48 -11 56 -19z m4 -129 c17 -16 12 -48 -8 -65 -8 -6 -31 -10 -52 -8
-37 3 -38 4 -41 46 l-3 42 45 0 c26 0 51 -6 59 -15z"/>
<path d="M8623 7303 c-17 -3 -23 -11 -23 -33 0 -15 -7 -30 -15 -34 -8 -3 -15
-12 -15 -20 0 -7 7 -16 15 -20 11 -4 15 -21 15 -63 0 -32 6 -69 13 -82 23 -45
117 -54 117 -11 0 14 -8 20 -32 22 -33 3 -33 3 -36 65 l-3 62 33 3 c25 2 33 8
33 23 0 15 -7 19 -30 20 -27 0 -30 3 -33 38 -2 20 -6 36 -10 36 -4 -1 -17 -4
-29 -6z"/>
<path d="M5341 7226 c-33 -18 -50 -53 -51 -103 0 -56 35 -99 90 -108 50 -8
110 10 110 34 0 25 -11 33 -26 20 -18 -15 -81 -14 -99 1 -8 7 -15 21 -15 31 0
17 8 19 75 19 61 0 75 3 75 15 0 29 -28 83 -48 94 -28 15 -82 13 -111 -3z m87
-38 c25 -25 13 -38 -33 -38 -30 0 -45 4 -45 13 0 19 21 37 45 37 12 0 26 -5
33 -12z"/>
<path d="M5540 7130 l0 -110 30 0 30 0 0 80 c0 76 1 81 25 92 40 18 53 -4 57
-94 3 -78 3 -78 31 -78 l27 0 0 80 c0 76 1 81 25 92 42 19 59 -8 63 -97 4 -71
5 -75 28 -75 23 0 24 2 24 84 0 69 -4 88 -21 110 -24 30 -72 35 -107 10 -20
-14 -24 -14 -38 0 -18 19 -75 21 -92 4 -9 -9 -15 -9 -24 0 -7 7 -22 12 -35 12
-23 0 -23 -2 -23 -110z"/>
<path d="M6084 7224 c4 -10 24 -61 44 -111 36 -89 38 -93 68 -93 30 0 32 3 67
93 19 50 38 100 42 110 7 16 3 18 -21 15 -25 -3 -32 -11 -52 -63 -13 -33 -26
-69 -31 -80 -6 -16 -12 -7 -30 45 -27 82 -30 87 -65 96 -26 6 -28 5 -22 -12z"/>
<path d="M6340 7130 l0 -110 30 0 30 0 0 110 0 110 -30 0 -30 0 0 -110z"/>
<path d="M6455 7230 c-3 -5 -5 -55 -4 -110 l2 -100 29 0 28 0 0 80 c0 77 1 81
26 90 17 7 32 7 45 0 16 -9 19 -22 19 -90 l0 -80 31 0 31 0 -4 91 c-3 81 -6
93 -27 110 -28 23 -69 24 -99 3 -20 -14 -22 -14 -22 0 0 18 -45 22 -55 6z"/>
<path d="M7034 7230 c-79 -32 -86 -155 -12 -200 88 -53 188 13 175 114 -10 76
-88 117 -163 86z m88 -47 c43 -39 7 -143 -45 -127 -37 11 -47 25 -47 63 0 68
49 103 92 64z"/>
<path d="M7654 7206 c-29 -29 -34 -41 -34 -79 0 -86 72 -134 161 -108 26 8 39
18 39 30 0 15 -8 17 -59 13 -52 -4 -60 -2 -74 19 -9 12 -14 26 -11 31 3 4 39
8 81 8 l76 0 -6 42 c-7 55 -35 78 -94 78 -38 0 -50 -5 -79 -34z m114 -18 c26
-26 13 -38 -38 -38 -34 0 -50 4 -50 13 0 21 22 37 50 37 14 0 31 -5 38 -12z"/>
<path d="M7960 7230 c0 -5 19 -55 42 -110 38 -90 45 -100 68 -100 24 0 30 10
68 99 23 55 42 104 42 110 0 6 -11 11 -24 11 -22 0 -29 -10 -53 -75 -15 -41
-30 -75 -33 -75 -3 0 -11 19 -18 42 -28 89 -40 108 -66 108 -15 0 -26 -4 -26
-10z"/>
<path d="M8255 7228 c-39 -21 -55 -51 -55 -104 0 -42 5 -56 26 -77 31 -31 82
-43 127 -30 38 10 77 64 77 105 0 43 -27 93 -56 107 -31 14 -93 14 -119 -1z
m99 -50 c32 -45 8 -128 -37 -128 -22 0 -54 29 -61 54 -7 27 8 76 27 88 23 15
56 8 71 -14z"/>
<path d="M8792 7233 c-17 -3 -22 -10 -20 -26 2 -13 9 -21 18 -19 77 18 110 10
110 -29 0 -16 -8 -19 -44 -19 -55 0 -96 -30 -96 -70 0 -49 69 -77 120 -50 12
7 28 7 44 0 17 -6 27 -6 32 1 10 17 -6 176 -20 195 -13 18 -96 28 -144 17z
m108 -142 c0 -40 -54 -58 -80 -26 -16 20 1 42 38 48 15 2 30 5 35 6 4 0 7 -12
7 -28z"/>
<path d="M5988 7162 c-50 -3 -58 -6 -58 -22 0 -18 7 -20 60 -20 46 0 62 4 67
16 9 23 -7 29 -69 26z"/>
<path d="M5104 6600 c-27 -11 -72 -65 -80 -95 -3 -12 6 -220 20 -461 14 -242
33 -581 41 -754 22 -471 26 -532 36 -566 12 -38 53 -78 98 -93 48 -16 2243
-16 2307 0 49 13 99 61 110 106 4 15 2 122 -5 238 -7 115 -23 442 -37 725 -37
762 -41 818 -59 847 -9 13 -30 33 -48 43 -31 19 -59 20 -1197 19 -641 0 -1174
-4 -1186 -9z m669 -237 c3 -5 -77 -7 -176 -5 -339 4 -373 8 -100 10 149 1 274
-1 276 -5z m7 -33 c0 -5 -5 -10 -11 -10 -5 0 -7 5 -4 10 3 6 8 10 11 10 2 0 4
-4 4 -10z m-197 -17 c-62 -2 -164 -2 -225 0 -62 1 -12 3 112 3 124 0 174 -2
113 -3z m1859 -83 c18 -36 18 -34 48 -615 5 -104 13 -281 16 -392 7 -187 6
-205 -11 -223 -18 -20 -31 -20 -1112 -20 l-1095 0 -27 28 c-31 30 -33 48 -47
387 -6 139 -5 165 10 192 20 40 43 53 96 53 47 0 70 -14 163 -97 65 -58 87
-63 143 -37 49 23 98 83 144 173 99 197 188 219 314 78 96 -108 145 -124 189
-59 26 37 71 138 120 267 48 125 87 169 152 169 58 0 107 -44 165 -152 85
-154 129 -217 173 -246 49 -31 88 -33 133 -6 52 33 86 90 207 350 45 97 90
158 130 176 47 20 70 14 89 -26z"/>
<path d="M7340 6145 c-7 -9 -10 -18 -7 -21 3 -3 10 4 17 15 13 25 8 27 -10 6z"/>
<path d="M7310 6090 c-6 -11 -8 -20 -6 -20 3 0 10 9 16 20 6 11 8 20 6 20 -3
0 -10 -9 -16 -20z"/>
<path d="M6530 6063 c-8 -4 -20 -13 -27 -22 -19 -25 -63 -118 -63 -133 0 -7
17 21 38 62 28 56 43 76 60 78 12 2 22 8 22 13 0 10 -7 10 -30 2z"/>
<path d="M6590 6051 c0 -5 7 -12 16 -15 14 -5 15 -4 4 9 -14 17 -20 19 -20 6z"/>
<path d="M7256 5985 c-9 -26 -7 -32 5 -12 6 10 9 21 6 23 -2 3 -7 -2 -11 -11z"/>
<path d="M6416 5843 c-6 -14 -5 -15 5 -6 7 7 10 15 7 18 -3 3 -9 -2 -12 -12z"/>
<path d="M7154 5769 c-14 -28 -38 -62 -52 -76 l-27 -24 28 17 c24 14 97 134
82 134 -2 0 -16 -23 -31 -51z"/>
<path d="M5915 5760 c-3 -6 1 -7 9 -4 18 7 21 14 7 14 -6 0 -13 -4 -16 -10z"/>
<path d="M6374 5735 c-9 -14 -15 -28 -12 -30 2 -2 12 9 22 25 21 36 13 40 -10
5z"/>
<path d="M6770 5756 c0 -2 8 -10 18 -17 15 -13 16 -12 3 4 -13 16 -21 21 -21
13z"/>
<path d="M6000 5746 c0 -2 14 -14 30 -26 17 -12 30 -19 30 -16 0 2 -13 14 -30
26 -16 12 -30 19 -30 16z"/>
<path d="M6850 5675 c0 -15 75 -35 127 -34 l58 2 -70 7 c-38 3 -80 12 -92 18
-13 7 -23 10 -23 7z"/>
<path d="M7050 5660 c-9 -6 -10 -10 -3 -10 6 0 15 5 18 10 8 12 4 12 -15 0z"/>
<path d="M6319 5633 c-13 -16 -12 -17 4 -4 16 13 21 21 13 21 -2 0 -10 -8 -17
-17z"/>
<path d="M6132 5614 c10 -10 20 -16 22 -13 3 3 -5 11 -17 18 -21 13 -21 12 -5
-5z"/>
<path d="M6278 5603 c7 -3 16 -2 19 1 4 3 -2 6 -13 5 -11 0 -14 -3 -6 -6z"/>
<path d="M5770 5550 c-6 -11 -8 -20 -6 -20 3 0 10 9 16 20 6 11 8 20 6 20 -3
0 -10 -9 -16 -20z"/>
<path d="M5735 5500 c-10 -11 -16 -22 -14 -24 2 -2 12 7 22 20 22 29 17 32 -8
4z"/>
<path d="M5689 5453 c-13 -16 -12 -17 4 -4 9 7 17 15 17 17 0 8 -8 3 -21 -13z"/>
<path d="M5522 5424 c10 -10 20 -16 22 -13 3 3 -5 11 -17 18 -21 13 -21 12 -5
-5z"/>
<path d="M5295 5000 c24 -9 151 -12 142 -4 -3 3 -41 7 -84 9 -43 1 -69 -1 -58
-5z"/>
<path d="M5530 4999 c0 -5 11 -9 25 -9 14 0 25 2 25 4 0 2 -11 6 -25 8 -14 3
-25 1 -25 -3z"/>
<path d="M6006 4998 c3 -4 21 -8 41 -8 20 0 34 2 31 5 -9 9 -77 12 -72 3z"/>
<path d="M6655 4999 c-26 -6 -23 -7 18 -8 26 0 47 1 47 3 0 9 -37 12 -65 5z"/>
<path d="M6830 5000 c-22 -7 -21 -8 13 -9 23 -1 36 3 32 9 -7 11 -10 11 -45 0z"/>
<path d="M5463 4993 c9 -2 23 -2 30 0 6 3 -1 5 -18 5 -16 0 -22 -2 -12 -5z"/>
<path d="M5618 4993 c6 -2 18 -2 25 0 6 3 1 5 -13 5 -14 0 -19 -2 -12 -5z"/>
<path d="M5738 4993 c7 -3 16 -2 19 1 4 3 -2 6 -13 5 -11 0 -14 -3 -6 -6z"/>
<path d="M5803 4993 c9 -2 23 -2 30 0 6 3 -1 5 -18 5 -16 0 -22 -2 -12 -5z"/>
<path d="M5868 4993 c12 -2 30 -2 40 0 9 3 -1 5 -23 4 -22 0 -30 -2 -17 -4z"/>
<path d="M6098 4993 c7 -3 16 -2 19 1 4 3 -2 6 -13 5 -11 0 -14 -3 -6 -6z"/>
<path d="M6198 4993 c7 -3 16 -2 19 1 4 3 -2 6 -13 5 -11 0 -14 -3 -6 -6z"/>
<path d="M6268 4993 c12 -2 30 -2 40 0 9 3 -1 5 -23 4 -22 0 -30 -2 -17 -4z"/>
<path d="M6348 4993 c6 -2 18 -2 25 0 6 3 1 5 -13 5 -14 0 -19 -2 -12 -5z"/>
<path d="M6448 4993 c34 -2 88 -2 120 0 31 2 3 3 -63 3 -66 0 -92 -1 -57 -3z"/>
<path d="M6968 4993 c12 -2 32 -2 45 0 12 2 2 4 -23 4 -25 0 -35 -2 -22 -4z"/>
<path d="M7053 4993 c9 -2 23 -2 30 0 6 3 -1 5 -18 5 -16 0 -22 -2 -12 -5z"/>
<path d="M7123 4993 c9 -2 23 -2 30 0 6 3 -1 5 -18 5 -16 0 -22 -2 -12 -5z"/>
<path d="M7208 4993 c23 -2 59 -2 80 0 20 2 1 4 -43 4 -44 0 -61 -2 -37 -4z"/>
<path d="M7338 4993 c7 -3 16 -2 19 1 4 3 -2 6 -13 5 -11 0 -14 -3 -6 -6z"/>
<path d="M7378 4993 c6 -2 18 -2 25 0 6 3 1 5 -13 5 -14 0 -19 -2 -12 -5z"/>
<path d="M8298 6603 c221 -2 583 -2 805 0 221 1 40 2 -403 2 -443 0 -624 -1
-402 -2z"/>
<path d="M7811 6554 c-12 -15 -21 -34 -20 -43 0 -10 4 -6 10 9 6 13 17 33 26
42 9 10 13 18 10 18 -3 0 -15 -12 -26 -26z"/>
<path d="M7781 6474 c0 -11 3 -14 6 -6 3 7 2 16 -1 19 -3 4 -6 -2 -5 -13z"/>
<path d="M9834 6399 c-68 -16 -106 -68 -70 -98 10 -8 25 -7 60 6 44 17 50 17
113 0 65 -17 67 -17 87 2 18 18 18 21 3 44 -26 40 -121 62 -193 46z"/>
<path d="M10357 6369 c-9 -5 -24 -23 -32 -39 -14 -27 -13 -29 11 -45 20 -13
38 -15 93 -9 57 5 75 3 119 -16 61 -26 82 -22 82 18 0 34 -19 54 -80 81 -49
22 -161 28 -193 10z"/>
<path d="M7792 6350 c0 -14 2 -19 5 -12 2 6 2 18 0 25 -3 6 -5 1 -5 -13z"/>
<path d="M8298 6303 c7 -3 16 -2 19 1 4 3 -2 6 -13 5 -11 0 -14 -3 -6 -6z"/>
<path d="M8257 6262 c-15 -15 -27 -31 -27 -35 0 -4 14 7 30 25 28 29 34 38 27
38 -2 0 -15 -13 -30 -28z"/>
<path d="M8013 6265 c-3 -9 -3 -19 1 -22 3 -4 6 1 6 10 0 14 11 17 59 17 66 0
111 -25 111 -62 0 -12 3 -19 6 -15 14 14 -8 58 -36 72 -40 20 -139 20 -147 0z"/>
<path d="M8363 6267 c16 -8 33 -20 38 -28 5 -8 9 -9 9 -3 0 15 -20 30 -50 38
-22 5 -22 4 3 -7z"/>
<path d="M8535 6272 c-11 -8 -54 -73 -75 -112 -20 -39 -4 -20 39 47 33 52 45
62 73 66 33 4 33 4 3 5 -16 1 -35 -2 -40 -6z"/>
<path d="M8684 6262 c-24 -19 -44 -54 -44 -74 1 -7 7 1 14 17 18 40 45 62 81
68 l30 4 -30 1 c-16 1 -40 -6 -51 -16z"/>
<path d="M8879 6259 l-24 -21 25 16 c52 34 105 19 131 -38 10 -23 19 -35 19
-28 0 22 -29 71 -49 82 -31 16 -77 12 -102 -11z"/>
<path d="M9144 6265 c-10 -8 -14 -15 -7 -15 6 0 15 5 18 10 12 20 75 11 100
-15 14 -13 25 -20 25 -15 0 5 -12 18 -26 29 -31 24 -82 27 -110 6z"/>
<path d="M9332 6252 c-82 -76 -38 -252 63 -252 41 0 95 44 95 77 -1 11 -6 6
-15 -14 -22 -52 -86 -70 -132 -38 -50 35 -54 172 -6 220 34 34 85 34 118 0 14
-13 25 -20 25 -15 0 5 -12 18 -26 29 -38 30 -85 27 -122 -7z"/>
<path d="M8789 6249 c28 -27 41 -60 41 -110 0 -110 93 -179 161 -118 l24 21
-25 -16 c-31 -20 -79 -20 -107 -1 -30 21 -47 78 -39 139 4 34 2 46 -4 36 -7
-11 -10 -12 -10 -2 0 19 -39 72 -53 72 -6 0 -1 -9 12 -21z"/>
<path d="M8602 6183 c-2 -70 -1 -73 21 -72 16 1 17 3 5 6 -14 3 -18 18 -21 71
l-3 67 -2 -72z"/>
<path d="M8075 6209 c-3 -4 7 -9 22 -11 22 -2 27 -8 25 -23 -3 -15 -1 -17 7
-9 7 6 9 18 6 26 -7 17 -52 30 -60 17z"/>
<path d="M8294 6209 c-3 -6 -1 -15 5 -20 6 -5 9 -6 6 -3 -3 4 0 13 6 21 8 9 8
13 1 13 -6 0 -14 -5 -18 -11z"/>
<path d="M8722 6211 c-8 -4 -15 -28 -17 -52 -4 -41 -4 -41 3 -9 12 52 21 64
38 49 14 -12 19 -83 8 -113 -9 -23 -23 -20 -34 7 -6 15 -9 17 -9 6 -1 -9 6
-23 15 -30 14 -11 18 -10 30 6 19 26 18 109 -2 129 -18 19 -15 18 -32 7z"/>
<path d="M8921 6211 c-18 -12 -26 -102 -12 -130 12 -21 35 -28 44 -13 3 4 8
30 11 57 5 49 5 49 -4 10 -17 -67 -18 -69 -35 -55 -18 15 -20 82 -4 112 11 21
12 21 26 2 15 -19 15 -19 11 0 -4 23 -18 29 -37 17z"/>
<path d="M9176 6198 c-9 -12 -15 -36 -15 -53 1 -29 1 -29 8 5 10 51 19 64 37
49 19 -15 19 -103 0 -118 -11 -10 -17 -8 -25 6 -6 10 -11 13 -11 7 0 -6 7 -18
16 -25 14 -11 18 -10 30 6 25 34 13 145 -16 145 -5 0 -16 -10 -24 -22z"/>
<path d="M9377 6213 c-4 -3 -7 -13 -7 -22 0 -12 3 -11 13 4 18 23 29 8 39 -55
7 -45 7 -45 4 9 -3 56 -27 87 -49 64z"/>
<path d="M8222 6190 c0 -14 2 -19 5 -12 2 6 2 18 0 25 -3 6 -5 1 -5 -13z"/>
<path d="M8350 6200 c8 -5 20 -10 25 -10 6 0 3 5 -5 10 -8 5 -19 10 -25 10 -5
0 -3 -5 5 -10z"/>
<path d="M9102 6190 c0 -14 2 -19 5 -12 2 6 2 18 0 25 -3 6 -5 1 -5 -13z"/>
<path d="M8531 6164 c-12 -27 -11 -28 4 -12 10 9 16 21 13 28 -2 7 -10 -1 -17
-16z"/>
<path d="M8320 6176 c0 -2 9 -6 20 -9 11 -3 18 -1 14 4 -5 9 -34 13 -34 5z"/>
<path d="M9493 6145 c0 -22 2 -30 4 -17 2 12 2 30 0 40 -3 9 -5 -1 -4 -23z"/>
<path d="M8075 6160 c3 -5 8 -10 11 -10 2 0 4 5 4 10 0 6 -5 10 -11 10 -5 0
-7 -4 -4 -10z"/>
<path d="M8245 6141 c24 -25 95 -55 95 -41 0 5 -8 10 -19 10 -10 0 -36 12 -57
26 -29 19 -34 21 -19 5z"/>
<path d="M8386 6138 c10 -14 21 -24 23 -22 3 3 -6 15 -18 27 l-24 22 19 -27z"/>
<path d="M9866 6128 c-9 -12 -16 -37 -16 -55 0 -76 48 -113 98 -76 37 27 43
102 13 132 -28 28 -75 27 -95 -1z"/>
<path d="M10105 6138 c-2 -7 -10 -46 -19 -86 -10 -45 -33 -106 -61 -156 -51
-95 -55 -123 -21 -163 22 -26 31 -28 109 -31 79 -4 85 -3 90 17 5 20 1 21 -72
21 -63 0 -81 4 -94 18 -24 26 -22 34 28 141 35 77 45 112 51 174 4 42 4 77 0
77 -4 0 -8 -6 -11 -12z"/>
<path d="M8168 6124 c-15 -16 -15 -20 9 -55 14 -22 27 -39 30 -39 7 0 -27 59
-38 65 -7 5 -4 13 7 26 21 23 15 25 -8 3z"/>
<path d="M8505 6120 c-3 -5 -1 -10 4 -10 6 0 11 5 11 10 0 6 -2 10 -4 10 -3 0
-8 -4 -11 -10z"/>
<path d="M9098 6092 c-2 -17 1 -29 7 -29 6 0 9 12 7 29 -2 15 -5 28 -7 28 -2
0 -5 -13 -7 -28z"/>
<path d="M10401 6094 c-24 -30 -26 -48 -10 -93 19 -55 65 -66 104 -26 49 48
18 145 -45 145 -19 0 -36 -9 -49 -26z"/>
<path d="M8432 6090 c0 -14 2 -19 5 -12 2 6 2 18 0 25 -3 6 -5 1 -5 -13z"/>
<path d="M9018 6080 c-3 -17 -1 -33 4 -36 4 -3 8 11 8 30 0 44 -6 47 -12 6z"/>
<path d="M9373 6090 c2 -28 37 -36 45 -10 5 13 3 13 -11 1 -15 -12 -18 -10
-27 10 l-10 24 3 -25z"/>
<path d="M8085 6083 c9 -10 27 -31 41 -48 l25 -30 -26 39 c-14 21 -25 43 -25
47 0 5 -7 9 -15 9 -13 0 -13 -2 0 -17z"/>
<path d="M8640 6092 c0 -22 29 -71 49 -82 37 -19 81 -12 112 19 16 16 29 35
29 43 -1 7 -7 1 -16 -14 -17 -32 -43 -48 -78 -48 -41 0 -58 11 -77 54 -10 23
-19 35 -19 28z"/>
<path d="M8265 6081 c17 -17 75 -26 75 -11 0 7 -7 10 -15 6 -8 -3 -28 -1 -43
5 -19 7 -24 7 -17 0z"/>
<path d="M8225 6069 c-4 -6 -5 -12 -2 -15 2 -3 7 2 10 11 7 17 1 20 -8 4z"/>
<path d="M8400 6060 c-6 -11 -8 -20 -6 -20 3 0 10 9 16 20 6 11 8 20 6 20 -3
0 -10 -9 -16 -20z"/>
<path d="M9265 6047 c-16 -25 -30 -33 -60 -38 l-40 -6 37 -2 c29 -1 41 5 62
30 14 17 26 35 26 40 0 14 -3 11 -25 -24z"/>
<path d="M8012 6050 c0 -14 2 -19 5 -12 2 6 2 18 0 25 -3 6 -5 1 -5 -13z"/>
<path d="M8473 6053 c15 -2 39 -2 55 0 15 2 2 4 -28 4 -30 0 -43 -2 -27 -4z"/>
<path d="M8600 6036 c0 -13 -5 -27 -10 -29 -6 -3 -5 -4 2 -3 14 3 31 56 17 56
-5 0 -9 -11 -9 -24z"/>
<path d="M9087 6013 c-9 -20 -14 -39 -12 -42 3 -2 12 13 20 34 21 49 14 56 -8
8z"/>
<path d="M9135 6030 c10 -11 20 -20 23 -20 3 0 -3 9 -13 20 -10 11 -20 20 -23
20 -3 0 3 -9 13 -20z"/>
<path d="M8364 6014 c-18 -14 -18 -15 4 -4 12 6 22 13 22 15 0 8 -5 6 -26 -11z"/>
<path d="M9034 6010 c0 -13 4 -16 10 -10 7 7 7 13 0 20 -6 6 -10 3 -10 -10z"/>
<path d="M8038 6003 c6 -2 18 -2 25 0 6 3 1 5 -13 5 -14 0 -19 -2 -12 -5z"/>
<path d="M11024 5976 c-49 -22 -137 -150 -117 -170 16 -15 44 -3 59 26 19 37
70 86 102 99 17 6 22 16 20 31 -4 28 -23 32 -64 14z"/>
<path d="M10362 5611 c-46 -57 -100 -75 -209 -69 -62 3 -101 11 -130 25 -51
25 -59 9 -15 -32 62 -58 196 -69 291 -23 56 27 124 91 119 114 -6 30 -23 26
-56 -15z"/>
<path d="M10800 5518 c-62 -107 -237 -255 -347 -293 -55 -19 -187 -45 -228
-45 l-35 0 0 -64 0 -64 63 5 c115 9 305 126 323 199 3 13 10 24 14 24 4 0 28
18 53 40 25 22 52 40 61 40 9 0 16 6 16 13 1 6 14 27 30 46 l28 33 -15 -63
c-20 -78 -49 -122 -155 -234 -92 -97 -141 -130 -236 -157 -51 -14 -57 -17 -25
-13 80 10 148 43 217 106 93 85 183 201 196 252 7 23 22 67 34 97 29 68 49
130 44 135 -1 1 -19 -24 -38 -57z"/>
<path d="M7915 5526 c-16 -7 -41 -25 -55 -40 -33 -36 -35 -88 -16 -443 17
-321 23 -349 78 -383 30 -18 50 -20 256 -20 l222 0 0 25 c0 70 66 142 120 130
43 -10 70 -50 70 -106 l0 -49 418 0 418 0 49 51 c54 55 194 153 263 184 l44
19 -7 125 c-23 450 -24 454 -100 494 -40 22 -41 22 -885 24 -690 2 -851 0
-875 -11z m475 -304 c0 -10 12 -22 30 -29 20 -8 30 -18 30 -32 0 -12 -1 -21
-3 -21 -1 0 -18 4 -36 10 -24 7 -39 6 -48 -1 -21 -18 -15 -29 25 -46 20 -8 45
-22 55 -31 36 -32 9 -111 -41 -115 -12 -1 -21 -6 -18 -13 6 -16 -10 -38 -23
-30 -6 4 -11 15 -11 25 0 10 -12 23 -26 30 -40 18 -24 36 32 36 37 0 49 4 52
17 2 12 -11 23 -45 38 -54 24 -63 34 -63 72 0 19 10 35 35 55 19 15 35 34 35
41 0 6 5 12 10 12 6 0 10 -8 10 -18z m-156 -43 c32 -25 34 -66 6 -102 l-21
-26 26 -40 c31 -50 31 -51 0 -51 -17 0 -33 12 -55 45 -17 25 -35 45 -40 45 -6
0 -10 -20 -10 -45 0 -41 -2 -45 -25 -45 l-25 0 0 120 0 120 59 0 c44 0 65 -5
85 -21z m409 -14 c0 -16 -18 -69 -38 -117 -32 -77 -40 -88 -62 -88 -29 0 -28
7 23 118 l33 72 -55 0 c-51 0 -54 1 -54 25 0 26 0 26 78 23 l77 -3 -2 -30z
m180 3 c29 -39 30 -136 1 -175 -27 -37 -91 -44 -118 -14 -39 43 -39 159 0 202
27 30 90 23 117 -13z m177 22 c10 -5 23 -24 29 -41 23 -65 7 -160 -29 -179
-10 -6 -35 -10 -54 -10 -30 0 -40 6 -57 33 -16 26 -19 44 -16 94 6 82 26 113
73 113 19 0 44 -4 54 -10z m304 -23 c27 -37 29 -140 3 -180 -24 -37 -87 -38
-122 -2 -22 21 -25 33 -25 93 0 92 23 125 83 120 30 -2 45 -10 61 -31z m186 8
c15 -16 24 -41 28 -74 9 -94 -20 -141 -86 -141 -49 0 -70 22 -78 82 -8 60 2
114 27 139 28 28 80 25 109 -6z m-360 -188 c0 -25 -26 -67 -41 -67 -6 0 -7 9
-4 20 4 12 1 27 -5 35 -16 19 -4 35 26 35 18 0 24 -5 24 -23z"/>
<path d="M8140 5120 c0 -27 3 -30 29 -30 21 0 32 6 36 20 9 28 -2 40 -36 40
-26 0 -29 -3 -29 -30z"/>
<path d="M8741 5146 c-20 -24 -19 -113 2 -133 16 -16 18 -16 34 0 30 30 17
147 -17 147 -4 0 -13 -6 -19 -14z"/>
<path d="M8930 5141 c-23 -45 -6 -141 25 -141 21 0 35 33 35 80 0 47 -14 80
-35 80 -8 0 -19 -9 -25 -19z"/>
<path d="M9221 5146 c-19 -22 -10 -126 11 -140 25 -15 39 3 45 58 4 33 1 53
-11 71 -19 29 -29 31 -45 11z"/>
<path d="M9410 5141 c-23 -45 -6 -141 25 -141 21 0 35 33 35 84 0 63 -37 99
-60 57z"/>
<path d="M10973 5032 c-6 -166 -212 -364 -418 -403 -74 -14 -197 -6 -247 15
-86 37 -146 117 -155 210 -4 39 1 66 21 119 14 37 21 67 17 67 -23 0 -69 -23
-81 -41 -8 -12 -23 -30 -32 -41 -22 -25 -22 -24 -3 -134 25 -142 38 -168 115
-225 71 -53 143 -72 275 -73 156 -1 229 20 355 106 100 67 167 136 220 223 30
50 35 68 37 132 2 66 0 73 -17 73 -10 0 -22 5 -25 10 -3 6 -18 10 -33 10 -25
0 -27 -3 -29 -48z"/>
<path d="M11395 4980 c11 -5 27 -9 35 -9 9 0 8 4 -5 9 -11 5 -27 9 -35 9 -9 0
-8 -4 5 -9z"/>
<path d="M10238 4973 c12 -2 32 -2 45 0 12 2 2 4 -23 4 -25 0 -35 -2 -22 -4z"/>
<path d="M11544 4936 c55 -20 101 -34 103 -32 5 4 -135 54 -172 61 -16 3 15
-10 69 -29z"/>
<path d="M11714 4869 c32 -17 60 -28 62 -26 5 5 -102 57 -114 57 -4 -1 19 -15
52 -31z"/>
<path d="M11810 4827 c0 -3 20 -17 44 -31 47 -27 168 -155 218 -228 16 -24 49
-80 74 -125 51 -92 69 -112 28 -30 -76 150 -236 346 -323 395 -22 13 -41 21
-41 19z"/>
<path d="M11675 4725 c-50 -21 -123 -102 -160 -178 -32 -66 -72 -213 -61 -225
14 -13 33 12 49 64 33 107 98 226 158 287 30 32 53 59 50 62 -4 2 -20 -3 -36
-10z"/>
<path d="M5209 4387 c-55 -37 -60 -69 -49 -295 20 -396 50 -1003 61 -1247 6
-137 15 -267 20 -287 6 -25 22 -47 46 -65 l36 -28 1161 -3 1161 -2 45 22 c69
35 83 70 75 193 -15 256 -46 844 -55 1065 -21 481 -28 577 -45 609 -33 65 43
61 -1248 61 l-1174 0 -34 -23z m342 -172 c-1 -6 -11 -10 -24 -10 -34 0 -31
-28 6 -45 35 -16 47 -51 27 -76 -16 -18 -74 -18 -90 1 -13 16 -11 17 32 19 39
1 39 18 0 35 -32 15 -50 49 -37 71 17 27 88 31 86 5z m439 0 c0 -8 -9 -15 -20
-15 -18 0 -20 -7 -20 -65 0 -51 -3 -65 -15 -65 -12 0 -15 14 -15 64 0 59 -2
65 -22 68 -12 2 -23 9 -26 16 -3 9 13 12 57 12 48 0 61 -3 61 -15z m405 -4
c12 -15 16 -32 13 -65 -2 -30 1 -47 9 -51 31 -11 8 -22 -47 -22 -78 -1 -105
18 -105 75 0 54 26 82 75 82 24 0 43 -7 55 -19z m379 3 c21 -20 30 -58 22 -89
-5 -18 -2 -27 9 -31 33 -13 12 -24 -45 -24 -51 0 -65 4 -85 25 -29 28 -33 79
-9 113 18 27 84 31 108 6z m316 1 c0 -10 -10 -15 -30 -15 -20 0 -30 -5 -30
-15 0 -8 8 -15 17 -15 41 0 69 -60 41 -88 -23 -23 -88 -12 -88 15 0 11 8 12
35 7 27 -5 35 -3 35 8 0 8 -16 22 -35 31 -37 18 -47 51 -23 75 18 18 78 16 78
-3z m330 -5 c49 -49 7 -140 -65 -140 l-35 0 0 80 0 80 40 0 c27 0 47 -7 60
-20z m-1836 -346 c9 -3 16 -11 16 -16 0 -6 -7 -8 -15 -4 -17 6 -45 -2 -45 -14
0 -4 13 -13 29 -20 33 -13 42 -29 36 -61 -7 -33 -16 -38 -55 -30 -46 9 -47 35
-2 37 44 2 51 11 16 19 -51 12 -54 14 -54 44 0 40 34 60 74 45z m396 -74 c0
-64 -3 -80 -15 -80 -12 0 -15 13 -15 60 0 47 -3 60 -15 60 -21 0 -19 28 3 33
41 11 42 9 42 -73z m388 68 c18 -18 15 -41 -13 -82 l-24 -36 24 0 c16 0 25 -6
25 -15 0 -11 -12 -15 -51 -15 -37 0 -48 3 -43 13 5 6 21 32 36 56 15 25 28 49
28 53 0 4 -16 8 -35 8 -33 0 -43 8 -28 23 11 12 68 8 81 -5z m400 0 c-3 -7
-17 -14 -31 -16 -34 -4 -36 -32 -3 -32 25 0 36 -16 36 -55 0 -37 -61 -60 -87
-34 -17 17 -5 43 13 28 17 -14 44 -5 44 16 0 10 -10 15 -30 15 -29 0 -30 2
-30 45 l0 45 46 0 c32 0 44 -4 42 -12z m687 -3 c0 -5 -12 -11 -27 -13 -31 -4
-39 -32 -10 -32 10 0 23 -5 30 -12 17 -17 15 -63 -2 -77 -21 -18 -70 -10 -74
12 -3 15 1 17 23 11 18 -4 30 -2 35 7 13 19 2 29 -31 29 -28 0 -29 2 -29 46
l0 45 43 -3 c23 -2 42 -7 42 -13z m-375 1 c0 -3 -10 -21 -21 -41 -21 -35 -21
-53 0 -40 6 3 11 17 11 31 0 33 18 31 26 -3 4 -16 12 -31 18 -36 7 -5 5 -11
-6 -17 -9 -6 -15 -17 -12 -25 4 -9 0 -15 -9 -15 -8 0 -17 8 -20 19 -3 14 -11
17 -30 14 -13 -3 -28 0 -31 6 -10 15 42 111 59 111 8 0 15 -2 15 -4z m-1061
-338 c-18 -65 -53 -138 -66 -138 -9 0 -6 17 11 65 l24 65 -34 0 c-53 0 -37 24
21 31 28 3 51 6 52 7 1 1 -3 -12 -8 -30z m42 15 c13 -16 12 -17 -3 -4 -10 7
-18 15 -18 17 0 8 8 3 21 -13z m-466 -7 c12 -9 16 -20 12 -36 -3 -13 -1 -32 4
-42 22 -40 -38 -86 -78 -60 -20 13 -25 113 -6 134 19 21 42 23 68 4z m805 -1
c7 -8 10 -25 7 -37 -3 -11 -1 -30 4 -40 23 -42 -27 -87 -75 -68 -26 10 -42 42
-30 62 4 7 7 25 6 41 -2 16 3 36 9 43 15 19 63 18 79 -1z m300 -65 c0 -64 -3
-80 -15 -80 -12 0 -15 13 -15 60 0 47 -3 60 -15 60 -20 0 -19 17 3 29 37 22
42 14 42 -69z m125 60 c28 -31 25 -108 -4 -132 -28 -22 -41 -23 -67 -4 -15 11
-19 26 -19 69 0 31 6 61 14 70 18 23 54 21 76 -3z m243 -63 c2 -64 0 -77 -13
-77 -12 0 -15 13 -15 60 0 49 -3 58 -15 54 -21 -9 -19 23 3 35 30 18 37 6 40
-72z m82 3 c0 -64 -3 -80 -15 -80 -12 0 -15 13 -15 60 0 47 -3 60 -15 60 -34
0 0 36 38 39 4 1 7 -35 7 -79z m250 0 c0 -64 -3 -80 -15 -80 -12 0 -15 13 -15
60 0 47 -3 60 -15 60 -34 0 0 36 38 39 4 1 7 -35 7 -79z m115 63 c19 -19 14
-66 -10 -93 -21 -23 -19 -33 5 -25 14 5 20 2 20 -9 0 -12 -11 -16 -45 -16 -25
0 -45 2 -45 5 0 2 14 24 31 49 37 52 34 82 -6 72 -24 -6 -35 10 -18 27 12 13
52 7 68 -10z m-1631 -99 c3 -8 2 -12 -4 -9 -6 3 -10 10 -10 16 0 14 7 11 14
-7z m66 -330 c0 -64 -2 -74 -17 -74 -16 0 -18 8 -15 61 3 50 1 60 -11 57 -9
-2 -17 2 -18 7 -2 12 41 36 53 29 4 -3 8 -39 8 -80z m84 35 c-13 -25 -13 -31
-3 -22 8 6 20 9 26 5 16 -10 53 -79 45 -86 -3 -4 -11 6 -18 21 l-12 28 -1 -27
c-1 -29 -19 -36 -38 -17 -9 9 -8 16 3 27 11 10 12 18 5 25 -13 13 -27 1 -33
-27 -5 -30 -28 -32 -28 -2 0 30 29 108 44 118 21 14 27 -11 10 -43z m304 -33
c2 -68 0 -77 -14 -74 -14 2 -17 14 -17 61 0 45 -3 57 -15 55 -24 -5 -24 18 0
30 13 6 28 9 33 8 6 -1 11 -37 13 -80z m120 67 c2 -9 -7 -13 -27 -13 -21 0
-31 -5 -31 -15 0 -8 8 -15 17 -15 42 0 70 -64 39 -89 -19 -16 -78 -10 -84 8
-3 10 2 13 22 9 27 -5 52 14 41 32 -3 5 -19 10 -36 10 -27 0 -29 3 -29 38 0
21 3 42 7 46 12 11 76 2 81 -11z m260 -68 c3 -61 1 -75 -11 -75 -10 0 -16 17
-20 57 -3 32 -11 59 -17 61 -17 6 -11 22 13 31 12 5 24 7 26 5 3 -3 7 -38 9
-79z m120 68 c2 -8 -5 -13 -17 -13 -11 0 -25 -8 -30 -19 -9 -16 -7 -17 14 -13
32 6 55 -14 55 -47 0 -35 -17 -51 -52 -51 -38 0 -62 38 -55 88 9 55 71 95 85
55z m232 -63 c0 -64 -3 -80 -15 -80 -12 0 -15 13 -15 60 0 47 -3 60 -15 60
-34 0 0 36 38 39 4 1 7 -35 7 -79z m125 58 c-29 -95 -46 -133 -59 -136 -20 -4
-20 -7 4 63 11 32 20 60 20 62 0 1 -13 3 -29 3 -30 0 -46 12 -34 24 3 3 28 6
55 6 47 0 49 -1 43 -22z m203 -61 c2 -64 0 -77 -13 -77 -12 0 -15 13 -15 60 0
47 -3 60 -15 60 -21 0 -19 28 3 33 33 9 37 0 40 -76z m122 68 c7 -8 10 -26 8
-40 -3 -14 -1 -28 3 -31 16 -10 9 -53 -10 -64 -54 -28 -108 10 -82 58 8 14 8
23 1 27 -12 8 -3 46 14 57 19 13 53 9 66 -7z m-1980 -54 c0 -33 3 -66 6 -75 4
-11 1 -16 -10 -16 -13 0 -16 12 -16 61 0 50 -3 60 -15 55 -9 -3 -15 0 -15 9 0
12 14 19 43 24 4 0 7 -26 7 -58z m118 47 c15 -15 15 -69 0 -103 -12 -26 -48
-42 -67 -30 -19 11 -12 27 9 20 21 -7 50 9 50 26 0 5 -15 8 -32 7 -32 -3 -33
-1 -36 36 -2 24 2 42 10 47 19 13 52 11 66 -3z m46 -331 c13 -10 18 -27 19
-63 1 -62 -6 -74 -43 -74 -55 0 -82 88 -40 130 23 23 39 25 64 7z m284 1 c18
-18 15 -49 -8 -85 l-20 -33 26 0 c16 0 24 -5 21 -12 -4 -13 -97 -20 -97 -7 0
3 14 23 30 44 17 21 30 46 30 56 0 14 -7 19 -30 19 -29 0 -38 9 -23 23 11 11
58 8 71 -5z m106 -60 c4 -41 2 -76 -3 -81 -18 -18 -31 5 -31 58 0 41 -4 54
-17 60 -17 6 -17 7 1 21 35 26 43 17 50 -58z m274 60 c18 -18 14 -57 -9 -89
l-20 -29 25 0 c16 0 26 -6 26 -14 0 -11 -13 -15 -50 -14 -27 0 -50 3 -50 6 0
4 14 25 30 46 40 52 39 76 0 76 -29 0 -38 9 -23 23 11 11 58 8 71 -5z m121 3
c20 -13 16 -59 -8 -92 l-22 -29 27 0 c43 0 22 -25 -24 -28 -50 -4 -53 7 -17
54 14 18 25 42 25 54 0 18 -5 21 -25 18 -19 -4 -25 -1 -25 13 0 14 7 19 28 19
15 0 33 -4 41 -9z m285 -13 c8 -13 5 -28 -12 -63 -21 -44 -21 -45 -2 -45 11 0
20 -6 20 -14 0 -9 -14 -14 -45 -14 -54 -1 -56 8 -15 62 39 52 39 70 0 64 -24
-4 -30 -1 -30 14 0 16 6 19 36 16 21 -2 42 -10 48 -20z m118 -2 c9 -20 7 -31
-11 -61 -26 -44 -26 -45 -1 -45 11 0 20 -7 20 -15 0 -17 -75 -22 -85 -5 -3 5
6 27 20 47 33 50 34 77 0 71 -19 -4 -25 -1 -25 13 0 15 8 19 35 19 28 0 38 -5
47 -24z m186 12 c19 -19 14 -54 -14 -87 l-26 -31 32 0 c52 0 30 -25 -23 -26
-56 -2 -58 6 -17 60 38 50 39 70 5 64 -27 -6 -41 5 -30 22 9 14 58 13 73 -2z
m128 -13 c3 -14 4 -34 1 -45 -3 -13 0 -20 9 -20 17 0 17 -10 4 -44 -11 -31
-30 -34 -37 -6 -4 14 -14 20 -34 20 -35 0 -36 7 -4 70 28 55 51 64 61 25z
m244 6 c11 -22 -1 -64 -27 -93 -15 -17 -14 -18 11 -18 44 0 25 -25 -20 -26
-21 -1 -42 0 -46 2 -3 3 9 27 28 55 36 54 34 82 -6 72 -14 -4 -20 0 -20 11 0
25 66 22 80 -3z m120 3 c0 -11 -8 -14 -27 -12 -38 4 -38 -14 0 -32 43 -20 49
-62 12 -86 -21 -14 -30 -15 -52 -5 -30 14 -24 25 15 26 20 0 27 5 27 20 0 15
-8 21 -32 23 -36 4 -36 4 -27 51 6 28 10 31 45 31 29 0 39 -4 39 -16z m-1982
-17 c2 -10 -5 -35 -17 -56 l-20 -39 22 -7 22 -8 -22 -4 c-13 -2 -34 -3 -48 -1
l-26 3 31 42 c36 48 37 80 2 75 -12 -2 -22 2 -22 8 0 7 15 10 37 8 27 -2 39
-8 41 -21z"/>
<path d="M6304 4186 c-10 -25 0 -69 18 -80 21 -13 38 1 18 15 -11 8 -8 10 13
6 24 -4 27 -1 27 22 0 15 -5 32 -12 39 -16 16 -57 15 -64 -2z"/>
<path d="M6688 4176 c-8 -20 -8 -32 0 -51 14 -30 42 -32 67 -5 26 29 10 74
-28 78 -21 3 -29 -2 -39 -22z"/>
<path d="M7357 4203 c-4 -3 -7 -28 -7 -55 0 -40 3 -48 19 -48 26 0 43 24 39
56 -3 27 -39 60 -51 47z"/>
<path d="M5545 3510 c-4 -6 -1 -17 5 -26 10 -11 16 -12 26 -3 11 9 11 15 3 25
-14 17 -25 18 -34 4z"/>
<path d="M5547 3453 c-15 -14 -7 -43 12 -43 26 0 36 17 21 35 -14 16 -23 19
-33 8z"/>
<path d="M6340 3495 c0 -8 9 -15 20 -15 11 0 20 7 20 15 0 8 -9 15 -20 15 -11
0 -20 -7 -20 -15z"/>
<path d="M6336 3441 c-8 -13 20 -45 32 -37 20 12 14 46 -7 46 -11 0 -22 -4
-25 -9z"/>
<path d="M6764 3484 c-9 -33 7 -79 26 -79 23 0 21 99 -2 103 -12 2 -19 -5 -24
-24z"/>
<path d="M6780 3077 c0 -19 20 -36 36 -30 8 3 14 14 14 24 0 14 -7 19 -25 19
-14 0 -25 -6 -25 -13z"/>
<path d="M7477 3153 c-4 -3 -7 -12 -7 -20 0 -15 26 -18 34 -4 7 11 -18 33 -27
24z"/>
<path d="M7466 3081 c-7 -10 3 -41 13 -41 17 1 33 20 28 34 -7 17 -32 22 -41
7z"/>
<path d="M5601 3131 c-12 -21 -5 -31 21 -31 13 0 18 7 18 25 0 30 -25 34 -39
6z"/>
<path d="M5654 2796 c-11 -43 -1 -81 21 -81 16 0 21 8 23 38 5 57 -31 93 -44
43z"/>
<path d="M7177 2791 c-19 -32 -21 -41 -9 -41 8 0 34 61 29 67 -2 1 -11 -11
-20 -26z"/>
<path d="M9551 4357 c-8 -22 -11 -120 -9 -278 2 -205 -1 -257 -16 -324 -17
-77 -81 -262 -95 -278 -4 -4 -65 20 -135 54 -70 33 -150 69 -179 79 -29 10
-61 21 -71 26 -14 5 -17 4 -12 -4 4 -7 3 -12 -2 -12 -5 0 -16 -17 -24 -37
l-15 -38 87 -90 c47 -49 96 -103 108 -120 l22 -30 -6 30 c-10 44 -29 78 -69
122 -19 21 -45 48 -57 61 l-21 23 26 -6 c27 -7 194 -94 322 -168 39 -23 102
-72 140 -110 76 -74 92 -77 109 -18 5 17 13 31 17 31 17 0 8 138 -20 325 -43
280 -71 537 -73 669 -1 65 -5 119 -9 122 -4 2 -12 -11 -18 -29z"/>
<path d="M12201 4345 c0 -5 15 -39 34 -75 19 -36 34 -60 34 -55 0 6 -15 39
-34 75 -19 36 -34 61 -34 55z"/>
<path d="M8240 4319 c0 -6 -14 -7 -36 -3 -24 4 -35 3 -31 -3 4 -6 40 -14 81
-18 46 -4 80 -12 87 -21 15 -19 6 -133 -13 -146 -21 -14 -217 -2 -262 17 -47
20 -56 14 -21 -13 31 -24 104 -42 183 -43 79 -1 105 -10 120 -43 17 -35 2 -78
-34 -95 -32 -14 -187 -14 -237 0 -50 14 -58 5 -15 -17 23 -12 67 -19 141 -23
100 -6 110 -8 127 -31 11 -14 20 -41 20 -62 0 -56 -19 -62 -174 -55 -72 3
-137 7 -145 9 -7 1 -16 -3 -18 -9 -3 -8 4 -13 20 -13 13 0 37 -5 53 -10 16 -6
76 -13 134 -18 100 -7 104 -8 110 -32 4 -14 3 -38 -2 -54 -5 -21 -4 -32 5 -38
9 -6 9 -8 -2 -8 -8 0 -12 -3 -9 -6 4 -3 15 -1 26 5 25 13 46 72 40 113 -3 17
1 51 8 74 7 24 10 59 7 79 -6 39 -5 40 40 22 47 -20 87 -29 87 -19 0 5 -22 23
-50 41 -39 26 -52 40 -60 72 -5 21 -15 58 -22 82 -6 23 -11 93 -12 154 -1 106
-2 113 -21 114 -11 0 -44 3 -72 5 -33 2 -53 0 -53 -7z m83 -16 c-7 -2 -19 -2
-25 0 -7 3 -2 5 12 5 14 0 19 -2 13 -5z"/>
<path d="M12291 4155 c0 -5 6 -21 14 -35 8 -14 14 -20 14 -15 0 6 -6 21 -14
35 -8 14 -14 21 -14 15z"/>
<path d="M12330 4065 c0 -5 5 -17 10 -25 5 -8 10 -10 10 -5 0 6 -5 17 -10 25
-5 8 -10 11 -10 5z"/>
<path d="M12396 3890 c3 -14 11 -32 16 -40 6 -10 7 -7 2 10 -3 14 -11 32 -16
40 -6 10 -7 7 -2 -10z"/>
<path d="M12441 3770 c0 -8 6 -28 14 -45 17 -39 18 -21 0 25 -7 19 -14 28 -14
20z"/>
<path d="M12471 3678 c-1 -9 4 -29 9 -44 8 -19 7 -30 -1 -40 -10 -12 -9 -13 5
-8 19 7 19 7 2 64 -8 25 -15 37 -15 28z"/>
<path d="M12000 3048 c-36 -11 -77 -29 -92 -39 -14 -10 -30 -19 -36 -19 -5 0
-16 -8 -23 -17 -12 -15 -12 -16 1 -7 8 5 22 9 30 9 8 0 51 15 96 32 49 19 116
36 170 43 48 6 90 13 93 16 14 14 -182 0 -239 -18z"/>
<path d="M9685 2343 c15 -16 75 -33 75 -22 0 5 -3 9 -7 10 -15 1 -38 7 -58 15
-13 5 -17 4 -10 -3z"/>
<path d="M9836 2302 c-7 -11 51 -28 61 -18 4 3 -3 6 -13 6 -11 0 -25 5 -31 11
-7 7 -13 7 -17 1z"/>
<path d="M2498 1503 c12 -2 32 -2 45 0 12 2 2 4 -23 4 -25 0 -35 -2 -22 -4z"/>
<path d="M2618 1503 c28 -2 76 -2 105 0 28 2 5 3 -53 3 -58 0 -81 -1 -52 -3z"/>
<path d="M12912 1503 c48 -2 129 -2 180 0 51 1 12 3 -87 3 -99 0 -141 -2 -93
-3z"/>
<path d="M13208 1503 c7 -3 16 -2 19 1 4 3 -2 6 -13 5 -11 0 -14 -3 -6 -6z"/>
<path d="M11057 1493 c-20 -2 -35 -8 -32 -13 6 -9 40 -5 77 9 24 10 19 10 -45
4z"/>
<path d="M12678 1493 c29 -2 74 -2 100 0 26 2 2 3 -53 3 -55 0 -76 -1 -47 -3z"/>
<path d="M11170 1344 c-32 -84 -34 -183 -5 -264 25 -67 46 -112 51 -107 3 3
-7 33 -21 68 -41 95 -48 166 -25 252 19 75 19 101 0 51z"/>
<path d="M11020 1162 c0 -22 4 -43 9 -46 5 -4 7 12 4 36 -8 57 -13 61 -13 10z"/>
<path d="M12026 982 c-10 -31 -85 -101 -134 -126 -48 -24 -152 -43 -267 -49
-42 -2 -33 -4 32 -5 141 -3 227 21 302 84 37 31 97 114 82 114 -5 0 -12 -8
-15 -18z"/>
<path d="M8090 971 c0 -23 63 -80 109 -100 37 -16 78 -22 158 -26 l108 -4
-115 13 c-129 14 -178 34 -228 91 -18 20 -32 31 -32 26z"/>
<path d="M7977 960 c17 -4 49 -4 70 0 32 6 26 8 -32 8 -53 0 -62 -2 -38 -8z"/>
</g>
</svg>
